<svg preserveAspectRatio="none" overflow="visible" style="display: block;" width="16.6667" height="16.6667" viewBox="0 0 16.6667 16.6667" fill="none" xmlns="http://www.w3.org/2000/svg">
<g id="Container">
<path id="Icon" d="M5 16.6667V15.2083C3.54167 14.625 2.34375 13.7222 1.40625 12.5C0.46875 11.2778 0 9.88889 0 8.33333C0 7.18056 0.21875 6.09722 0.65625 5.08333C1.09375 4.06944 1.6875 3.1875 2.4375 2.4375C3.1875 1.6875 4.06944 1.09375 5.08333 0.65625C6.09722 0.21875 7.18056 0 8.33333 0C9.48611 0 10.5694 0.21875 11.5833 0.65625C12.5972 1.09375 13.4792 1.6875 14.2292 2.4375C14.9792 3.1875 15.5729 4.06944 16.0104 5.08333C16.4479 6.09722 16.6667 7.18056 16.6667 8.33333C16.6667 9.88889 16.1979 11.2778 15.2604 12.5C14.3229 13.7222 13.125 14.625 11.6667 15.2083V16.6667H5V16.6667M6.66667 8.33333H10V1.875C9.72222 1.80556 9.44444 1.75347 9.16667 1.71875C8.88889 1.68403 8.61111 1.66667 8.33333 1.66667C8.05556 1.66667 7.77778 1.68403 7.5 1.71875C7.22222 1.75347 6.94444 1.80556 6.66667 1.875V8.33333V8.33333M1.66667 8.33333H5V2.5625C3.95833 3.15972 3.14236 3.97222 2.55208 5C1.96181 6.02778 1.66667 7.13889 1.66667 8.33333V8.33333M11.6667 8.33333H15C15 7.13889 14.7049 6.02778 14.1146 5C13.5243 3.97222 12.7083 3.15972 11.6667 2.5625V8.33333V8.33333M6.66667 15H10V14.0833C11 13.6806 11.9236 13.1493 12.7708 12.4896C13.6181 11.8299 14.25 11 14.6667 10H2C2.41667 11 3.04861 11.8299 3.89583 12.4896C4.74306 13.1493 5.66667 13.6806 6.66667 14.0833V15V15M6.66667 15V15V15V15H10V15V15V15H6.66667V15" fill="#0F5132"/>
</g>
</svg>
